<?xml version="1.0" encoding="UTF-8" standalone="no"?><!DOCTYPE svg PUBLIC "-//W3C//DTD SVG 1.1//EN" "http://www.w3.org/Graphics/SVG/1.1/DTD/svg11.dtd"><svg width="100%" height="100%" viewBox="0 0 100 72" version="1.1" xmlns="http://www.w3.org/2000/svg" xmlns:xlink="http://www.w3.org/1999/xlink" xml:space="preserve" xmlns:serif="http://www.serif.com/" style="fill-rule:evenodd;clip-rule:evenodd;stroke-linejoin:round;stroke-miterlimit:1.41421;"><path id="path8" d="M36.199,0c-1.326,0.005 -12.292,0.317 -23.86,8.912c0,0 -12.339,22.194 -12.339,49.529c0,0 7.198,12.34 26.135,12.939c0,0 3.171,-3.77 5.741,-7.026c-10.882,-3.256 -14.995,-10.026 -14.995,-10.026c0,0 0.857,0.6 2.399,1.457c0.086,0 0.171,0.086 0.343,0.171c0.257,0.172 0.514,0.257 0.771,0.429c2.142,1.199 4.284,2.142 6.255,2.913c3.514,1.457 7.713,2.742 12.597,3.685c6.427,1.199 13.967,1.628 22.193,0.085c4.028,-0.771 8.141,-1.885 12.426,-3.684c2.999,-1.114 6.341,-2.742 9.854,-5.056c0,0 -4.284,6.941 -15.51,10.112c2.571,3.17 5.656,6.855 5.656,6.855c18.937,-0.6 26.135,-12.939 26.135,-12.854c0,-27.335 -12.339,-49.529 -12.339,-49.529c-12.254,-9.168 -23.994,-8.911 -23.994,-8.911l-1.199,1.371c14.567,4.37 21.337,10.797 21.337,10.797c-8.912,-4.799 -17.652,-7.198 -25.793,-8.141c-6.17,-0.685 -12.082,-0.514 -17.309,0.172c-0.515,0 -0.943,0.085 -1.457,0.171c-2.999,0.343 -10.283,1.371 -19.452,5.398c-3.17,1.371 -5.056,2.4 -5.056,2.4c0,0 7.027,-6.77 22.451,-11.14l-0.857,-1.028c0,0 -0.045,-0.001 -0.133,-0.001Zm-2.18,31.62c4.884,0 8.826,4.199 8.74,9.426c0,5.227 -3.856,9.426 -8.74,9.426c-4.799,0 -8.741,-4.199 -8.741,-9.426c0,-5.227 3.856,-9.426 8.741,-9.426Zm31.277,0c4.798,0 8.74,4.199 8.74,9.426c0,5.227 -3.856,9.426 -8.74,9.426c-4.799,0 -8.741,-4.199 -8.741,-9.426c0,-5.227 3.856,-9.426 8.741,-9.426Z" style="fill-rule:nonzero;"/></svg>