<?xml version="1.0" encoding="UTF-8" standalone="no"?><!DOCTYPE svg PUBLIC "-//W3C//DTD SVG 1.1//EN" "http://www.w3.org/Graphics/SVG/1.1/DTD/svg11.dtd"><svg width="100%" height="100%" viewBox="0 0 24 32" version="1.1" xmlns="http://www.w3.org/2000/svg" xmlns:xlink="http://www.w3.org/1999/xlink" xml:space="preserve" xmlns:serif="http://www.serif.com/" style="fill-rule:evenodd;clip-rule:evenodd;stroke-linejoin:round;stroke-miterlimit:1.41421;"><path d="M19.805,24.938c0,-0.424 -0.109,-0.753 -0.329,-0.987c-0.219,-0.234 -0.493,-0.417 -0.822,-0.549c-0.329,-0.131 -0.68,-0.23 -1.053,-0.296c-0.373,-0.066 -0.713,-0.142 -1.02,-0.23l-0.022,-0.022c-0.804,-0.234 -1.608,-0.442 -2.412,-0.625c-0.805,-0.183 -1.623,-0.274 -2.457,-0.274c-0.029,0 -0.08,-0.011 -0.153,-0.033c-0.073,-0.022 -0.234,-0.113 -0.483,-0.274c-0.117,0 -0.219,0.029 -0.307,0.087c-0.088,0.059 -0.172,0.125 -0.252,0.198c-0.081,0.073 -0.165,0.139 -0.252,0.197c-0.088,0.059 -0.183,0.088 -0.285,0.088c-0.161,0 -0.315,-0.033 -0.461,-0.099c-0.146,-0.066 -0.3,-0.098 -0.461,-0.098c-0.321,0 -0.636,0.047 -0.943,0.142c-0.307,0.095 -0.61,0.198 -0.91,0.307c-0.3,0.11 -0.603,0.212 -0.91,0.307c-0.307,0.095 -0.622,0.143 -0.943,0.143c-0.19,0 -0.413,0.088 -0.669,0.263c-0.256,0.175 -0.501,0.387 -0.735,0.636c-0.234,0.249 -0.431,0.508 -0.592,0.779c-0.161,0.27 -0.241,0.5 -0.241,0.691c0,0.453 0.062,0.87 0.186,1.25c0.124,0.38 0.311,0.709 0.559,0.987c0.249,0.278 0.552,0.497 0.91,0.658c0.359,0.161 0.779,0.241 1.262,0.241c0.16,0 0.31,0.011 0.449,0.033c0.139,0.022 0.289,0.091 0.45,0.208c0.512,0.395 1.078,0.625 1.7,0.691c0.621,0.066 1.239,0.099 1.853,0.099c0.38,0 0.742,-0.081 1.086,-0.241c0.343,-0.161 0.698,-0.286 1.063,-0.373c0.366,-0.073 0.735,-0.106 1.108,-0.099c0.373,0.007 0.735,-0.069 1.086,-0.23c0.248,-0.117 0.449,-0.231 0.603,-0.34c0.153,-0.11 0.376,-0.165 0.669,-0.165c0.248,0 0.486,0.022 0.713,0.066c0.226,0.044 0.464,0.066 0.712,0.066c0.249,0 0.479,-0.055 0.691,-0.165c0.212,-0.109 0.391,-0.256 0.538,-0.438c0.146,-0.183 0.259,-0.388 0.34,-0.614c0.08,-0.227 0.12,-0.457 0.12,-0.691l-0.022,-0.22c0.278,0 0.454,-0.124 0.527,-0.373c0.073,-0.248 0.109,-0.482 0.109,-0.701Zm3.51,0.723c0,0.468 -0.158,0.962 -0.472,1.481c-0.314,0.519 -0.687,0.998 -1.119,1.436c-0.431,0.439 -0.859,0.801 -1.283,1.086c-0.424,0.285 -0.745,0.428 -0.965,0.428c-0.38,0 -0.749,0.055 -1.107,0.164c-0.358,0.11 -0.706,0.245 -1.042,0.406c-0.322,0.161 -0.801,0.322 -1.437,0.483c-0.636,0.16 -1.312,0.303 -2.028,0.427c-0.717,0.125 -1.404,0.227 -2.062,0.307c-0.658,0.081 -1.17,0.121 -1.535,0.121c-0.424,0 -0.874,-0.015 -1.349,-0.044c-0.476,-0.029 -0.954,-0.077 -1.437,-0.142c-0.482,-0.066 -0.954,-0.154 -1.415,-0.264c-0.46,-0.109 -0.888,-0.245 -1.283,-0.405c-0.204,-0.088 -0.369,-0.176 -0.493,-0.264c-0.124,-0.087 -0.245,-0.168 -0.362,-0.241c-0.117,-0.073 -0.249,-0.131 -0.395,-0.175c-0.146,-0.044 -0.351,-0.066 -0.614,-0.066c-0.307,0 -0.556,-0.055 -0.746,-0.165c-0.19,-0.109 -0.347,-0.252 -0.471,-0.427c-0.124,-0.176 -0.241,-0.369 -0.351,-0.582c-0.11,-0.212 -0.238,-0.42 -0.384,-0.625c-0.322,-0.424 -0.563,-0.829 -0.724,-1.217c-0.161,-0.387 -0.241,-0.852 -0.241,-1.393c0,-0.745 0.154,-1.465 0.461,-2.16c0.307,-0.695 0.709,-1.32 1.206,-1.875c0,-0.439 -0.055,-0.87 -0.165,-1.294c-0.109,-0.424 -0.226,-0.848 -0.351,-1.272c-0.124,-0.424 -0.241,-0.848 -0.35,-1.272c-0.11,-0.425 -0.165,-0.856 -0.165,-1.295c0,-0.292 0.04,-0.53 0.121,-0.712c0.08,-0.183 0.164,-0.337 0.252,-0.461c0.088,-0.124 0.172,-0.241 0.252,-0.351c0.081,-0.11 0.121,-0.237 0.121,-0.384c0,-0.044 0.106,-0.168 0.318,-0.373c0.212,-0.204 0.446,-0.438 0.702,-0.701c0.256,-0.264 0.489,-0.541 0.701,-0.834c0.213,-0.292 0.319,-0.548 0.319,-0.767c0,-0.191 -0.077,-0.37 -0.231,-0.538c-0.153,-0.168 -0.318,-0.336 -0.493,-0.504c-0.176,-0.168 -0.34,-0.344 -0.494,-0.527c-0.153,-0.182 -0.23,-0.384 -0.23,-0.603c0,-0.322 0.026,-0.647 0.077,-0.976c0.051,-0.329 0.109,-0.651 0.175,-0.965c0.066,-0.314 0.124,-0.632 0.176,-0.954c0.051,-0.322 0.076,-0.651 0.076,-0.987c0,-0.073 -0.014,-0.135 -0.043,-0.186c-0.03,-0.052 -0.044,-0.114 -0.044,-0.187c0,-0.161 0.04,-0.303 0.12,-0.427c0.081,-0.125 0.172,-0.234 0.274,-0.329c0.103,-0.096 0.194,-0.187 0.275,-0.275c0.08,-0.087 0.12,-0.175 0.12,-0.263c0,-0.117 -0.044,-0.23 -0.131,-0.34c-0.088,-0.109 -0.132,-0.267 -0.132,-0.471l0,-0.088l0,-0.11c0.234,-0.161 0.428,-0.351 0.581,-0.57c0.154,-0.219 0.333,-0.417 0.538,-0.592c0.292,-0.249 0.639,-0.494 1.041,-0.735c0.403,-0.241 0.772,-0.45 1.108,-0.625c0.117,0.015 0.197,0.073 0.241,0.175c0.044,0.103 0.125,0.154 0.242,0.154c0.087,0 0.226,-0.048 0.416,-0.143c0.19,-0.095 0.413,-0.204 0.669,-0.329c0.256,-0.124 0.527,-0.234 0.812,-0.329c0.285,-0.095 0.566,-0.142 0.844,-0.142c0.234,0 0.468,0.018 0.702,0.055c0.234,0.036 0.468,0.069 0.702,0.098c0.468,0.059 0.885,0.095 1.25,0.11c0.366,0.015 0.706,0.066 1.02,0.154c0.314,0.087 0.607,0.241 0.877,0.46c0.271,0.219 0.552,0.556 0.845,1.009c0.146,-0.132 0.314,-0.248 0.504,-0.351c0.19,-0.102 0.373,-0.208 0.548,-0.318c0.176,-0.11 0.337,-0.234 0.483,-0.373c0.146,-0.139 0.256,-0.31 0.329,-0.515c0.146,0.073 0.292,0.11 0.439,0.11c0.117,0 0.241,-0.044 0.372,-0.132c0.132,-0.088 0.286,-0.179 0.461,-0.274c0.176,-0.095 0.38,-0.187 0.614,-0.274c0.234,-0.088 0.512,-0.132 0.834,-0.132c0.497,0 0.983,0.051 1.458,0.154c0.475,0.102 0.962,0.175 1.459,0.219c0.029,0.336 0.095,0.654 0.197,0.954c0.102,0.3 0.212,0.603 0.329,0.91c0.117,0.307 0.223,0.614 0.318,0.921c0.095,0.307 0.143,0.622 0.143,0.943c0,0.22 -0.114,0.468 -0.34,0.746c-0.227,0.278 -0.505,0.538 -0.834,0.779c-0.329,0.241 -0.68,0.442 -1.053,0.603c-0.372,0.161 -0.705,0.241 -0.997,0.241c-0.044,0 -0.092,-0.014 -0.143,-0.044c-0.051,-0.029 -0.077,-0.073 -0.077,-0.131c0,-0.146 0.048,-0.271 0.143,-0.373c0.095,-0.102 0.142,-0.227 0.142,-0.373c-0.19,-0.102 -0.303,-0.161 -0.34,-0.175c-0.036,-0.015 -0.062,-0.022 -0.076,-0.022c-0.249,0 -0.446,0.062 -0.593,0.186c-0.146,0.124 -0.255,0.292 -0.329,0.504c-0.073,0.213 -0.124,0.446 -0.153,0.702c-0.029,0.256 -0.044,0.516 -0.044,0.779c0,0.292 0.007,0.567 0.022,0.822c0.015,0.256 0.022,0.472 0.022,0.647c0,0.366 -0.022,0.691 -0.066,0.976c-0.044,0.286 -0.205,0.56 -0.482,0.823c-0.264,0.249 -0.468,0.523 -0.615,0.822c-0.146,0.3 -0.292,0.611 -0.438,0.933c-0.146,0.321 -0.311,0.643 -0.494,0.965c-0.182,0.321 -0.442,0.614 -0.778,0.877c-0.176,0.175 -0.318,0.307 -0.428,0.395c-0.11,0.087 -0.19,0.153 -0.241,0.197c-0.051,0.044 -0.088,0.07 -0.11,0.077c-0.022,0.007 -0.04,0.011 -0.055,0.011c-0.395,0 -0.775,0.055 -1.14,0.164c-0.366,0.11 -0.731,0.227 -1.097,0.351c-0.365,0.125 -0.731,0.242 -1.097,0.351c-0.365,0.11 -0.745,0.165 -1.14,0.165c-0.6,0 -1.188,-0.07 -1.766,-0.209c-0.577,-0.139 -1.173,-0.208 -1.787,-0.208c-0.293,0 -0.622,0.058 -0.987,0.175c-0.366,0.117 -0.706,0.282 -1.02,0.494c-0.314,0.212 -0.581,0.461 -0.801,0.746c-0.219,0.285 -0.329,0.595 -0.329,0.932c0,0.204 0.044,0.417 0.132,0.636c0.088,0.219 0.205,0.417 0.351,0.592c0.146,0.175 0.318,0.318 0.515,0.428c0.198,0.109 0.406,0.164 0.625,0.164c0.249,0 0.479,-0.058 0.691,-0.175c0.212,-0.117 0.443,-0.176 0.691,-0.176c0.176,0 0.318,0.048 0.428,0.143c0.11,0.095 0.23,0.15 0.362,0.164c0,-0.087 0.033,-0.168 0.099,-0.241c0.065,-0.073 0.149,-0.11 0.252,-0.11c0.087,0 0.175,0.052 0.263,0.154c0.088,0.102 0.19,0.168 0.307,0.197c0.073,-0.117 0.175,-0.201 0.307,-0.252c0.132,-0.051 0.263,-0.077 0.395,-0.077c0.175,0 0.34,0.03 0.493,0.088c0.154,0.059 0.304,0.128 0.45,0.208c0.146,0.081 0.285,0.15 0.417,0.209c0.131,0.058 0.263,0.088 0.394,0.088c0.117,0 0.22,-0.033 0.308,-0.099c0.087,-0.066 0.182,-0.143 0.285,-0.23c0.102,-0.088 0.219,-0.165 0.351,-0.231c0.131,-0.066 0.299,-0.098 0.504,-0.098c0.161,0 0.311,0.011 0.45,0.032c0.139,0.022 0.288,0.033 0.449,0.033c0.22,0 0.428,-0.054 0.625,-0.164c0.198,-0.11 0.406,-0.165 0.625,-0.165c0.117,0 0.231,0.03 0.34,0.088c0.11,0.059 0.245,0.124 0.406,0.197c0.161,0.074 0.355,0.139 0.581,0.198c0.227,0.058 0.509,0.088 0.845,0.088c0.234,0 0.468,0.036 0.702,0.109c0.234,0.073 0.46,0.161 0.68,0.263c0.219,0.103 0.442,0.205 0.669,0.308c0.226,0.102 0.449,0.182 0.668,0.241c0.264,0.073 0.461,0.146 0.593,0.219c0.131,0.073 0.237,0.154 0.318,0.241c0.08,0.088 0.164,0.19 0.252,0.307c0.088,0.117 0.227,0.249 0.417,0.395c0.204,0.176 0.409,0.311 0.614,0.406c0.204,0.095 0.395,0.194 0.57,0.296c0.175,0.102 0.325,0.234 0.45,0.395c0.124,0.161 0.223,0.402 0.296,0.724c0.073,0.336 0.153,0.672 0.241,1.009c0.088,0.336 0.132,0.679 0.132,1.03Zm-5.681,-21.998c0,-0.234 -0.124,-0.424 -0.373,-0.57c-0.248,-0.147 -0.475,-0.22 -0.68,-0.22c-0.117,0 -0.226,0.026 -0.329,0.077c-0.102,0.051 -0.168,0.135 -0.197,0.252c0.117,0.029 0.219,0.081 0.307,0.154c0.088,0.073 0.172,0.15 0.252,0.23c0.081,0.08 0.168,0.15 0.263,0.208c0.095,0.059 0.209,0.088 0.34,0.088c0.132,0 0.263,-0.022 0.395,-0.066l0.022,-0.153Zm-2.193,4.606c0,-0.322 -0.055,-0.688 -0.165,-1.097c-0.109,-0.409 -0.267,-0.801 -0.471,-1.173c-0.205,-0.373 -0.446,-0.706 -0.724,-0.998c-0.278,-0.293 -0.578,-0.49 -0.899,-0.593l-2.545,-0.899c-0.131,0 -0.234,0.015 -0.307,0.044c-0.073,0.029 -0.146,0.062 -0.219,0.099c-0.073,0.036 -0.146,0.069 -0.219,0.099c-0.073,0.029 -0.176,0.043 -0.307,0.043c-0.19,0 -0.366,-0.036 -0.527,-0.109c-0.161,-0.073 -0.329,-0.11 -0.504,-0.11c-0.161,0 -0.293,0.051 -0.395,0.154c-0.102,0.102 -0.205,0.204 -0.307,0.307c-0.102,0.102 -0.194,0.175 -0.274,0.219c-0.081,0.044 -0.161,0.08 -0.241,0.11c-0.081,0.029 -0.161,0.062 -0.242,0.098c-0.08,0.037 -0.164,0.084 -0.252,0.143c-0.117,0.073 -0.256,0.285 -0.417,0.636c-0.161,0.351 -0.314,0.731 -0.46,1.14c-0.146,0.41 -0.271,0.805 -0.373,1.185c-0.102,0.38 -0.154,0.636 -0.154,0.767c0,0.059 0.044,0.187 0.132,0.384c0.088,0.198 0.201,0.435 0.34,0.713c0.139,0.278 0.292,0.57 0.46,0.877c0.169,0.307 0.329,0.6 0.483,0.878c0.154,0.278 0.292,0.522 0.417,0.734c0.124,0.213 0.215,0.348 0.274,0.406c0.19,0.249 0.398,0.413 0.625,0.494c0.227,0.08 0.464,0.12 0.713,0.12c0.205,0 0.42,-0.014 0.647,-0.043c0.226,-0.03 0.449,-0.044 0.669,-0.044c0.175,0 0.343,0.018 0.504,0.054c0.161,0.037 0.329,0.055 0.505,0.055c0.482,0 0.972,-0.161 1.469,-0.482c0.497,-0.322 0.951,-0.717 1.36,-1.185c0.409,-0.467 0.746,-0.976 1.009,-1.524c0.263,-0.548 0.395,-1.049 0.395,-1.502Z" style="fill-rule:nonzero;"/></svg>